<mxfile host="app.diagrams.net" modified="2023-05-04T21:39:35.045Z" agent="Mozilla/5.0 (Windows NT 10.0; Win64; x64) AppleWebKit/537.36 (KHTML, like Gecko) Chrome/112.0.0.0 Safari/537.36 Edg/112.0.1722.68" version="21.1.2" etag="boTQXo9ci_5V5s2tT-__" type="github">
  <diagram name="Pagina-1" id="oFkfV6BnAFVpog9eu94J">
    <mxGraphModel>
      <root>
        <mxCell id="0" />
        <mxCell id="1" parent="0" />
      </root>
    </mxGraphModel>
  </diagram>
</mxfile>
